<svg id="filled_outline" height="512" viewBox="0 0 512 512" width="512" xmlns="http://www.w3.org/2000/svg" data-name="filled outline"><path d="m216 368h64v112h-64z" fill="#3a5cd6"/><path d="m280 320h64v160h-64z" fill="#4367e0"/><path d="m344 264h64v216h-64z" fill="#4976f2"/><path d="m408 208h64v272h-64z" fill="#548aff"/><path d="m112 464v24h80v-16l-32-24z" fill="#c5dafa"/><path d="m40 464v-216h120v200l-48 16v-176l-24 160z" fill="#8098ab"/><path d="m280 184 11.02944 11.02944a16.97054 16.97054 0 0 1 4.97056 12 16.97054 16.97054 0 0 1 -16.97055 16.97056h-55.02945v-40z" fill="#ffceb6"/><path d="m184 112-6.62742-6.62742a32 32 0 0 0 -22.62741-9.37258h-84.22463a46.52053 46.52053 0 0 0 -46.52054 46.52054v.00006a46.52055 46.52055 0 0 0 11.51026 30.634l4.48974 5.13114v69.71426h120v-24h24z" fill="#ffa100"/><circle cx="224" cy="160" fill="#ffc431" r="64"/><path d="m85.6 161.92-35.24706 28.19764 20.0852 22.95452a32 32 0 0 0 24.08244 10.92784h108.26832a5.2111 5.2111 0 0 0 5.2111-5.2111 5.2111 5.2111 0 0 0 -2.3205-4.33589l-21.6795-14.45301v-25.85927a6.14073 6.14073 0 0 0 -6.14073-6.14073 6.14073 6.14073 0 0 0 -3.40626 1.03133l-22.45301 14.96867h-48z" fill="#ffceb6"/><path d="m40 464v24h80v-16l-32-24z" fill="#e0edff"/><path d="m136 120-8 16h-16l-8-16 16-16z" fill="#e04f2b"/><path d="m136 184-8-48h-16l-8 48z" fill="#ef5e3b"/><path d="m120 104a24 24 0 0 1 -24-24v-8l24-16h24v24a24 24 0 0 1 -24 24z" fill="#ffceb6"/><path d="m144 56 3.02944-3.02945a16.97051 16.97051 0 0 0 4.97056-12 16.97054 16.97054 0 0 0 -16.97055-16.97055h-15.02945a24 24 0 0 0 -24 24v24l24-16z" fill="#c47220"/><path d="m216 200h16v-8.40308a20.00055 20.00055 0 0 0 -4-39.59692h-8a4 4 0 0 1 0-8h28v-16h-16v-8h-16v8.40308a20.00055 20.00055 0 0 0 4 39.59692h8a4 4 0 0 1 0 8h-28v16h16z"/><path d="m480 208a7.99977 7.99977 0 0 0 -8-8h-64a7.99977 7.99977 0 0 0 -8 8v48h-56a7.99977 7.99977 0 0 0 -8 8v48h-56a7.99977 7.99977 0 0 0 -8 8v40h-56a7.99977 7.99977 0 0 0 -8 8v104h-8a7.99927 7.99927 0 0 0 -3.2002-6.3999l-28.7998-21.6001v-212h34.78906a13.12674 13.12674 0 0 0 6.23615-1.56982 72.39754 72.39754 0 0 0 14.97479 1.56982h55.0293a24.9704 24.9704 0 0 0 17.6567-42.62744l-4.95569-4.95569a71.97277 71.97277 0 0 0 -108.04328-84.04333l-.65777-.65772a39.73644 39.73644 0 0 0 -28.28414-11.71582h-3.75769a31.94764 31.94764 0 0 0 1.01257-8v-20.68652l.686-.686a24.9704 24.9704 0 0 0 -17.6567-42.62748h-15.0293a32.036 32.036 0 0 0 -32 32v32a31.94764 31.94764 0 0 0 1.01257 8h-18.49206a54.52066 54.52066 0 0 0 -41.03076 90.42285l2.51025 2.8689v306.70825a7.99977 7.99977 0 0 0 8 8h152a7.99977 7.99977 0 0 0 8-8h296v-16h-16zm-360 244.90063v-164.90063a8 8 0 0 0 -15.91162-1.18652l-23.27228 155.14852-32.8161 10.93863v-196.90063h104v186.23413zm-16-57.63745v54.73682l-7.38037-5.53516zm-9.47949-179.26318a23.99994 23.99994 0 0 1 -18.062-8.1958l-14.57951-16.66235 22.59546-18.0763 13.38 16.056a7.99975 7.99975 0 0 0 6.14554 2.87845h48a7.996 7.996 0 0 0 4.4375-1.34375l19.5625-13.0415v22.38525a7.99943 7.99943 0 0 0 3.5625 6.65625l14.01514 9.34375zm24.25649-72h2.446l5.33338 32h-13.11272zm1.223-48a16.01833 16.01833 0 0 1 -16-16v-3.71875l18.42236-12.28125h13.57764v16a16.01833 16.01833 0 0 1 -16 16zm0 19.314 6.266 6.26587-3.21009 6.42013h-6.11182l-3.21008-6.42017zm165.37256 85.372a8.97072 8.97072 0 0 1 -6.34326 15.314h-9.84418a72.56717 72.56717 0 0 0 14.98163-16.51978zm-5.37256-40.686a55.88606 55.88606 0 0 1 -64.46851 55.33716 13.17118 13.17118 0 0 0 -5.4143-7.54028l-18.11719-12.07813v-21.57813a14.14049 14.14049 0 0 0 -21.98438-11.76562l-1.89636 1.26416q-.11644-1.81416-.11926-3.63916a56 56 0 0 1 112 0zm-108.5105-49.18628a71.7195 71.7195 0 0 0 -19.4895 49.18628 72.47512 72.47512 0 0 0 1.273 13.5365l-3.69536 2.4635h-6.80064l-6.45819-38.749 1.8728-3.74573 8.15161 8.15149 11.31348-11.31348-22.286-22.286a32.13861 32.13861 0 0 0 5.76162-4.05728h13.6128a23.836 23.836 0 0 1 16.74438 6.81372zm-51.4895-78.81372h15.0293a8.97072 8.97072 0 0 1 6.34326 15.314l-.686.686h-20.68656a7.996 7.996 0 0 0 -4.4375 1.34375l-11.5625 7.70825v-9.052a16.01833 16.01833 0 0 1 16-16zm-49.47949 72h28.34717a32.13861 32.13861 0 0 0 5.76159 4.05725l-22.286 22.286 11.31348 11.31348 8.15161-8.15149 1.8728 3.74573-4.70416 28.22503-28.83149-34.59758-12.291 10.24316 16.37488 19.6499-22.89681 18.31739-9.80182-11.20215a38.5208 38.5208 0 0 1 28.98975-63.88672zm-6.103 114.34033a39.99865 39.99865 0 0 0 30.103 13.65967h57.47949v8h-104v-40.42261zm-16.41751 261.65967v-10.23413l38.55341-12.85108 25.44659 19.08521v4zm136 0h-56v-8a7.99383 7.99383 0 0 0 -1.35663-4.44849l31.91-10.63672 25.44663 19.08521zm40-104h48v96h-48zm64-48h48v144h-48zm64-56h48v200h-48zm64 200v-256h48v256z"/><path d="m212.686 320h22.627v16h-22.627z" transform="matrix(.707 -.707 .707 .707 -166.323 254.461)"/><path d="m472 120v-32a7.99977 7.99977 0 0 0 -8-8h-32v16h12.68652l-202.34326 202.34326 11.31348 11.31348 202.34326-202.34326v12.68652z"/><path d="m316.686 128h22.627v16h-22.627z" transform="matrix(.707 -.707 .707 .707 -.098 271.765)"/><path d="m357.65674 117.65674 74.34326-74.34326v12.68652h16v-32a7.99977 7.99977 0 0 0 -8-8h-32v16h12.68652l-74.34326 74.34326z"/><path d="m344 24h-32v16h12.68652l-50.34326 50.34326 11.31348 11.31348 50.34326-50.34326v12.68652h16v-32a7.99977 7.99977 0 0 0 -8-8z"/></svg>