<?xml version="1.0" encoding="iso-8859-1"?>
<!-- Generator: Adobe Illustrator 19.0.0, SVG Export Plug-In . SVG Version: 6.00 Build 0)  -->
<svg version="1.1" id="Capa_1" xmlns="http://www.w3.org/2000/svg" xmlns:xlink="http://www.w3.org/1999/xlink" x="0px" y="0px"
	 viewBox="0 0 511.104 511.104" style="enable-background:new 0 0 511.104 511.104;" xml:space="preserve">
<path style="fill:#F5B54C;" d="M319.104,356.124c0,0,37.333,7.467,82.133-22.4c0,0,19.2-10.667,24.533-11.733
	c0,0-8.533,29.867,1.067,55.467c9.6,26.667,3.2,54.4,3.2,54.4s-6.4,9.6,1.067,16c0,0,16,2.133,23.467-1.067
	c7.467-4.267,26.667,1.067,26.667,1.067s10.667,4.267,16,0c0,0,13.867,5.333,13.867-2.133c0,0-2.133-2.133-5.333-2.133
	c-3.2-1.067-6.4-3.2-8.533-3.2c0,0-26.667-10.667-28.8-12.8c-3.2-2.133-7.467-4.267-8.533-17.067c-2.133-12.8,0-30.933,3.2-57.6
	c4.267-26.667,5.333-39.467,5.333-39.467s2.133-18.133-5.333-30.933c-7.467-12.8-27.733-12.8-27.733-12.8s-59.733,6.4-71.467,14.933
	L319.104,356.124z"/>
<path style="fill:#344A5E;" d="M363.904,285.724l-44.8,70.4c0,0,18.133,3.2,44.8-4.267c3.2-7.467,6.4-17.067,5.333-25.6
	c-2.133-13.867,2.133-33.067,4.267-43.733C369.237,282.524,366.037,283.59,363.904,285.724z"/>
<g>
	<path style="fill:#FFD15C;" d="M255.104,346.524l60.8,33.067l-2.133,3.2c0,0-25.6,51.2-80,71.467c0,0-7.467,4.267-9.6,6.4
		c-1.067,2.133-11.733,4.267-22.4,1.067c0,0-57.6-2.133-75.733-4.267c-18.133-3.2-46.933-3.2-46.933-3.2s-24.533,0-30.933-1.067
		c-5.333-1.067-9.6-1.067-9.6-1.067s-17.067-7.467-21.333-6.4c-4.267,1.067-12.8,7.467-17.067,0c0,0-1.067-2.133,2.133-3.2
		c0,0-1.067-3.2,3.2-4.267c0,0,1.067-6.4,12.8-7.467c11.733-1.067,19.2-3.2,23.467-7.467c4.267-4.267,11.733-11.733,17.067-10.667
		s7.467,6.4,7.467,7.467c0,1.067,1.067,6.4,8.533,6.4s27.733-3.2,40.533-7.467c12.8-4.267,35.2-5.333,44.8-2.133
		c9.6,3.2,24.533,3.2,24.533,3.2s12.8,2.133,24.533-12.8c11.733-13.867,42.667-51.2,46.933-53.333
		C255.104,355.057,254.037,350.79,255.104,346.524z"/>
	<path style="fill:#FFD15C;" d="M378.837,215.324l-5.333,42.667c0,0-7.467,43.733-13.867,59.733c-5.333,5.333-16,6.4-27.733,2.133
		c-14.933-6.4-29.867-19.2-33.067-25.6c-1.067-2.133-1.067-5.333,0-8.533c1.067-1.067,9.6-11.733,8.533-20.267
		c-1.067-9.6-4.267-14.933-6.4-24.533c-2.133-9.6-3.2-19.2-8.533-26.667c-5.333-7.467-6.4-42.667-6.4-42.667s2.133-16,10.667-21.333
		c0,0,7.467-13.867,9.6-38.4c0,0,8.533-35.2,24.533-32c16,3.2,16,49.067,16,49.067s-13.867,13.867-11.733,29.867
		c0,0,20.267,14.933,28.8,21.333C370.304,186.524,382.037,196.124,378.837,215.324z"/>
	<path style="fill:#FFD15C;" d="M344.704,128.924c0,0-13.867,13.867-11.733,29.867c0,0,1.067,0,2.133,1.067
		c-7.467-5.333-25.6-14.933-42.667-6.4c1.067-1.067,2.133-2.133,3.2-2.133c0,0,7.467-13.867,9.6-38.4c0,0,8.533-35.2,24.533-32
		C345.771,83.057,344.704,128.924,344.704,128.924z"/>
	<path style="fill:#FFD15C;" d="M348.971,57.457l19.2,13.867c0,0,6.4,14.933,4.267,22.4c0,0-2.133,4.267-2.133,7.467
		c1.067,3.2,4.267,10.667,5.333,13.867c1.067,3.2-6.4,3.2-6.4,3.2s-2.133,1.067-1.067,4.267c1.067,2.133,0,3.2-1.067,3.2
		c0,0,2.133,1.067,1.067,2.133c0,0-6.4,4.267-5.333,8.533c1.067,4.267-4.267,7.467-9.6,5.333c-4.267-2.133-23.467-8.533-26.667-41.6
		C325.504,64.924,348.971,57.457,348.971,57.457z"/>
</g>
<g>
	<path style="fill:#425A6B;" d="M300.971,71.324c-1.067-2.133-4.267-2.133-6.4-1.067s-3.2,3.2-3.2,6.4
		c-3.2,9.6-1.067,20.267,1.067,30.933c2.133,10.667,5.333,20.267,4.267,30.933c-2.133,17.067-14.933,32-14.933,49.067
		c-11.733-13.867-17.067-34.133-11.733-51.2c-2.133,7.467-5.333,14.933-10.667,22.4c3.2-7.467-1.067-18.133,2.133-25.6
		c2.133-3.2,4.267-5.333,5.333-8.533c2.133-5.333-1.067-9.6-3.2-14.933c-3.2-9.6-2.133-21.333,2.133-29.867
		c5.333-9.6,13.867-16,23.467-18.133c2.133-1.067,9.6,0,13.867,4.267"/>
	<path style="fill:#425A6B;" d="M302.037,61.724c2.133,3.2,19.2-21.333,43.733-11.733c21.333,7.467,23.467,21.333,23.467,21.333
		s-7.467-2.133-8.533,2.133c-1.067,3.2-3.2,13.867-14.933,16c0,0-1.067,5.333-2.133,11.733h-4.267c0,0,0-14.933-12.8-13.867
		c-12.8,1.067-6.4,19.2-13.867,27.733c-6.4,7.467-9.6,7.467-9.6,7.467s1.067-5.333-3.2-12.8s-7.467-20.267-3.2-29.867
		c6.4-10.667,2.133-10.667,2.133-10.667"/>
</g>
<path style="fill:#F26F5A;" d="M299.904,71.324c-2.133,0-3.2,0-4.267-1.067c2.133-3.2,3.2-6.4,4.267-8.533
	c2.133-1.067,4.267-1.067,5.333,0C303.104,63.857,300.971,67.057,299.904,71.324z"/>
<ellipse transform="matrix(-0.3943 -0.919 0.919 -0.3943 371.9797 436.5256)" style="fill:#FFD15C;" cx="329.848" cy="95.676" rx="12.8" ry="7.467"/>
<path style="fill:#425A6B;" d="M361.771,180.124c-8.533-6.4-28.8-21.333-28.8-21.333s-21.333-22.4-41.6-4.267
	c-5.333,6.4-6.4,18.133-6.4,18.133s0,2.133,0,5.333c2.133-11.733,10.667-38.4,42.667-19.2c0,0,24.533,12.8,26.667,26.667
	c0,0-22.4,50.133-62.933,30.933c4.267,7.467,5.333,16,7.467,23.467c7.467,4.267,28.8,8.533,77.867-13.867l1.067-10.667
	C382.037,196.124,370.304,186.524,361.771,180.124z"/>
<path style="fill:#FFD15C;" d="M444.971,280.39c-2.133,6.4-7.467,9.6-7.467,9.6s-10.667,1.067-13.867-2.133c0,0-6.4,0-8.533-4.267
	c0,0-12.8-6.4-27.733-19.2c-14.933-13.867-32-26.667-40.533-34.133c-5.333-4.267-11.733-10.667-16-14.933
	c-9.6,6.4-22.4,8.533-38.4,1.067c0,0-8.533-14.933-6.4-38.4c2.133-11.733,10.667-38.4,42.667-19.2c0,0,24.533,12.8,26.667,26.667
	c0,0,9.6,19.2,18.133,26.667c8.533,8.533,17.067,18.133,17.067,18.133s5.333,5.333,9.6,8.533c4.267,2.133,19.2,17.067,22.4,21.333
	c0,0,3.2-2.133,4.267,1.067c0-1.067,5.333-1.067,5.333,1.067c1.067-2.133,6.4,1.067,5.333,2.133c1.067-1.067,5.333,1.067,4.267,3.2
	C441.771,265.457,447.104,273.99,444.971,280.39z"/>
<path style="fill:#425A6B;" d="M331.904,319.857c-14.933-6.4-29.867-19.2-33.067-25.6c-1.067-2.133-1.067-5.333,0-8.533l0,0
	c-3.2,2.133-20.267,22.4-20.267,22.4c-18.133,10.667-22.4,26.667-23.467,36.267l60.8,33.067l25.6-34.133c0,0,9.6-9.6,17.067-22.4
	c1.067-1.067,1.067-2.133,2.133-4.267C354.304,324.124,343.637,325.19,331.904,319.857z"/>
<path style="fill:#F5B54C;" d="M341.504,132.124c-1.067,1.067-2.133,3.2-3.2,4.267c-7.467-12.8-11.733-24.533-11.733-25.6
	C330.837,120.39,339.371,129.99,341.504,132.124z"/>
<g>
</g>
<g>
</g>
<g>
</g>
<g>
</g>
<g>
</g>
<g>
</g>
<g>
</g>
<g>
</g>
<g>
</g>
<g>
</g>
<g>
</g>
<g>
</g>
<g>
</g>
<g>
</g>
<g>
</g>
</svg>
