<svg id="Capa_1" enable-background="new 0 0 511.262 511.262" height="512" viewBox="0 0 511.262 511.262" width="512" xmlns="http://www.w3.org/2000/svg"><g><g><path d="m215.034 489.211v-47.791c0-11.871-9.599-21.508-21.47-21.554l-74.58-.292c-12.782-.05-23.681-9.271-25.849-21.868l-12.691-73.767h-27.973c-3.397 0-6.15-2.753-6.15-6.15 0-23.513 6.578-46.556 18.99-66.526l9.101-14.643c1.249-2.009 1.824-4.365 1.642-6.723l-3.416-44.206c-7.427-96.11 68.557-178.192 164.953-178.192 117.757 0 202.185 113.562 168.262 226.328l-34.465 114.569v140.045c0 7.954-6.423 14.415-14.376 14.463l-127.429.769c-8.021.049-14.549-6.44-14.549-14.462z" fill="#ffcebf"/><path d="m262.238 495.683v-84.989c0-11.871-9.599-21.508-21.47-21.554l-74.58-.292c-12.782-.05-23.681-9.271-25.849-21.868l-7.948-46.199c-2.74-15.928-16.554-27.568-32.716-27.568-3.398 0-6.151-2.781-6.15-6.179.005-23.503 6.583-46.535 18.99-66.497l9.101-14.643c1.249-2.009 1.824-4.365 1.642-6.723l-3.416-44.206c-4.105-53.12 17.284-101.954 53.503-135.014-64.086 26.47-107.528 91.975-101.828 165.74l3.416 44.206c.182 2.359-.393 4.714-1.642 6.723l-9.101 14.643c-12.412 19.97-18.99 43.013-18.99 66.526 0 3.397 2.753 6.15 6.15 6.15h27.973l12.691 73.767c2.167 12.597 13.067 21.818 25.849 21.868l74.58.292c11.871.046 21.47 9.683 21.47 21.554v51.989c0 5.708 4.645 10.325 10.353 10.29l41.526-.25c-2.173-1.886-3.554-4.661-3.554-7.766z" fill="#ffb09e"/><circle cx="242.039" cy="181.247" fill="#fd8087" r="125.936"/><path d="m175.412 181.247c0-59.337 41.057-109.086 96.298-122.42-9.511-2.296-19.455-3.515-29.671-3.515-69.552 0-125.936 56.383-125.936 125.936s56.383 125.936 125.936 125.936c10.216 0 20.161-1.224 29.671-3.52-55.241-13.336-96.298-63.08-96.298-122.417z" fill="#fe646f"/><path d="m250.577 247.056 59.366-65.137c15.016-16.475 14.428-41.844-1.334-57.606l-.139-.139c-16.293-16.294-42.71-16.294-59.004 0l-7.451 7.451-7.601-7.571c-16.303-16.237-42.674-16.21-58.944.06-15.843 15.843-16.344 41.37-1.136 57.823l60.246 65.176c4.319 4.672 11.711 4.646 15.997-.057z" fill="#f9f7f8"/></g><g><path d="m389.459 288.328c-3.961-1.194-8.148 1.055-9.342 5.021l-15.91 52.887c-.211.7-.318 1.429-.318 2.16v154.422c0 4.143 3.357 7.5 7.5 7.5s7.5-3.357 7.5-7.5v-153.318l15.592-51.83c1.193-3.966-1.055-8.149-5.022-9.342z"/><path d="m237.591 0c-24.587 0-48.322 5.04-70.548 14.98-21.396 9.569-40.36 23.188-56.366 40.479s-28.124 37.248-36.015 59.318c-8.199 22.925-11.396 46.979-9.501 71.492l3.415 44.206c.06.772-.125 1.528-.534 2.187l-9.101 14.643c-13.163 21.177-20.12 45.55-20.12 70.484 0 7.527 6.123 13.65 13.649 13.65h21.654l11.619 67.538c2.79 16.215 16.757 28.031 33.211 28.097l74.58.291c7.719.03 13.999 6.335 13.999 14.055v62.342c0 4.143 3.357 7.5 7.5 7.5s7.5-3.357 7.5-7.5v-62.342c0-15.958-12.982-28.991-28.94-29.055l-74.58-.291c-9.159-.036-16.934-6.614-18.486-15.64l-12.691-73.767c-.619-3.599-3.74-6.229-7.392-6.229h-26.615c.245-21.663 6.405-42.801 17.853-61.217l9.101-14.643c2.106-3.39 3.057-7.284 2.749-11.262l-3.415-44.205c-3.429-44.376 11.334-86.802 41.569-119.464s71.397-50.647 115.906-50.647c53.731 0 102.935 24.73 134.992 67.852 32.058 43.12 41.566 97.361 26.088 148.815l-9.262 30.789c-1.193 3.966 1.055 8.149 5.021 9.342 3.96 1.19 8.149-1.055 9.342-5.021l9.262-30.789c16.859-56.041 6.503-115.119-28.413-162.085-34.916-46.966-88.507-73.903-147.031-73.903z"/><path d="m344.241 95.467c-2.665-3.172-7.396-3.582-10.566-.918-3.172 2.664-3.583 7.396-.918 10.566 17.875 21.274 27.719 48.313 27.719 76.132 0 65.306-53.131 118.436-118.437 118.436s-118.436-53.13-118.436-118.436 53.13-118.436 118.436-118.436c24.463 0 47.946 7.399 67.911 21.399 3.39 2.378 8.068 1.557 10.446-1.835s1.557-8.068-1.835-10.446c-22.501-15.778-48.962-24.118-76.522-24.118-73.576 0-133.436 59.859-133.436 133.436s59.859 133.436 133.436 133.436 133.437-59.859 133.437-133.436c-.001-31.344-11.094-61.809-31.235-85.78z"/><path d="m245.035 242.004c-.865.949-1.919 1.095-2.471 1.097-.003 0-.007 0-.011 0-.555 0-1.601-.143-2.466-1.078l-20.567-22.252c-2.813-3.043-7.558-3.229-10.599-.417-3.042 2.812-3.229 7.557-.417 10.599l20.568 22.253c3.466 3.749 8.376 5.896 13.48 5.896h.064c5.127-.019 10.049-2.202 13.503-5.992l59.365-65.137c17.751-19.477 17.06-49.328-1.573-67.962l-.14-.14c-19.19-19.19-50.417-19.19-69.611 0l-2.158 2.159-2.298-2.289c-19.19-19.112-50.385-19.082-69.54.07-18.765 18.765-19.353 48.729-1.34 68.218l17.72 19.169c2.812 3.041 7.557 3.228 10.599.417 3.042-2.813 3.229-7.558.417-10.599l-17.72-19.169c-12.524-13.55-12.115-34.383.932-47.429 13.316-13.317 35.005-13.338 48.348-.05l7.601 7.57c2.931 2.919 7.669 2.914 10.597-.01l7.45-7.451c13.344-13.345 35.056-13.344 48.397 0l.14.14c12.955 12.954 13.436 33.71 1.095 47.251z"/><path d="m452.592 70.754c3.193-2.639 3.644-7.365 1.006-10.559-2.639-3.195-7.367-3.644-10.559-1.006l-12.147 10.035c-3.193 2.639-3.644 7.365-1.006 10.559 1.483 1.796 3.626 2.724 5.786 2.724 1.683 0 3.375-.563 4.772-1.718z"/><path d="m400.552 52.019c.787.262 1.587.387 2.373.387 3.14 0 6.066-1.987 7.114-5.13l5.281-15.844c1.31-3.93-.813-8.178-4.743-9.487-3.933-1.311-8.178.813-9.487 4.743l-5.281 15.844c-1.309 3.929.814 8.177 4.743 9.487z"/><path d="m464.941 110.813h-17.125c-4.143 0-7.5 3.357-7.5 7.5s3.357 7.5 7.5 7.5h17.125c4.143 0 7.5-3.357 7.5-7.5s-3.358-7.5-7.5-7.5z"/></g></g></svg>