<svg id="Capa_1" enable-background="new 0 0 511.995 511.995" height="512" viewBox="0 0 511.995 511.995" width="512" xmlns="http://www.w3.org/2000/svg"><g id="XMLID_1215_"><path id="XMLID_3115_" d="m77.797 103.075c-6.858-9.181-17.811-15.125-30.152-15.125-20.772 0-37.612 16.839-37.612 37.612 0 12.341 5.944 23.294 15.125 30.152 1.941 25.284 23.057 45.2 48.839 45.2 27.062 0 49-21.938 49-49 .001-25.782-19.915-46.898-45.2-48.839z" fill="#cbe558"/><path id="XMLID_3114_" d="m308.223 46.646c-7.78-21.307-28.226-36.518-52.225-36.518s-44.446 15.211-52.225 36.518c-21.766 5.453-37.888 25.138-37.888 48.594 0 27.669 22.431 50.1 50.1 50.1 16.351 0 30.869-7.836 40.013-19.954 9.144 12.118 23.662 19.954 40.013 19.954 27.669 0 50.1-22.431 50.1-50.1 0-23.456-16.122-43.141-37.888-48.594z" fill="#cbe558"/><path id="XMLID_3113_" d="m59.351 381.499c0-108.605 88.042-196.647 196.647-196.647s196.647 88.042 196.647 196.647-72.854 116.165-181.459 116.165-211.835-7.56-211.835-116.165z" fill="#80b6ff"/><g fill="#89df8f"><path id="XMLID_3112_" d="m136.388 361.608c0-15.523 7.357-30.128 19.831-39.367 8.831-6.541 14.04-16.88 14.04-27.869 0-19.154-15.527-34.681-34.681-34.681h-33.962c-26.464 33.496-42.265 75.806-42.265 121.808 0 34.115 10.19 58.254 27.529 75.326l49.509-89.5v-5.717z"/><path id="XMLID_3111_" d="m380.286 229.115c-2.689-.28-5.407-.439-8.154-.439-33.123 0-59.975 26.852-59.975 59.975 0 20.383 10.353 39.371 27.486 50.413l20.798 13.403c11.017 7.1 17.674 19.31 17.674 32.417 0 12.22-5.792 23.717-15.612 30.99-9.91 7.34-15.755 18.942-15.755 31.275 0 15.845 12.845 28.69 28.69 28.69 24.615 0 47.084-13.931 58.11-35.938 9.008-17.979 15.509-37.461 19.091-57.996 0-.137.004-.269.004-.407.001-61.457-28.198-116.323-72.357-152.383z"/><path id="XMLID_3110_" d="m266.474 308.908c-8.904-8.485-21.83-11.229-33.414-7.092-14.792 5.283-24.667 19.295-24.667 35.003v15.872c0 15.91 12.898 28.809 28.808 28.809 10.517 0 20.199-5.731 25.257-14.952l10.099-18.408c7.103-12.945 4.606-29.047-6.083-39.232z"/></g><path id="XMLID_3106_" d="m255.998 501.84v.027c0-31.267-12.421-61.253-34.53-83.362-15.478-15.478-36.471-24.174-58.36-24.174l-45.469-45.469c-10.57-10.57-27.706-10.57-38.276 0-10.57 10.57-10.57 27.706 0 38.276l52.708 52.708 4.031 4.031-58.269-58.269c-12.454-12.454-19.45-29.345-19.45-46.957v-63.488c0-11.761-8.458-21.817-20.045-23.833-14.797-2.574-28.338 8.815-28.338 23.833v56.858c0 41.285 16.4 80.879 45.593 110.072l59.747 59.747z" fill="#f2d2bd"/><path id="XMLID_3103_" d="m255.998 501.84v.027c0-31.267 12.421-61.253 34.53-83.362 15.478-15.478 36.471-24.174 58.36-24.174l45.469-45.469c10.57-10.57 27.706-10.57 38.276 0 10.57 10.57 10.57 27.706 0 38.276l-52.708 52.708-4.031 4.031 58.269-58.269c12.454-12.454 19.45-29.345 19.45-46.957v-63.488c0-11.761 8.458-21.817 20.045-23.833 14.796-2.574 28.337 8.815 28.337 23.833v56.858c0 41.285-16.4 80.879-45.593 110.072l-59.747 59.747z" fill="#f2d2bd"/><path id="XMLID_1630_" d="m434.198 103.075c6.858-9.181 17.811-15.125 30.152-15.125 20.772 0 37.612 16.839 37.612 37.612 0 12.341-5.944 23.294-15.125 30.152-1.941 25.284-23.057 45.2-48.839 45.2-27.062 0-49-21.938-49-49 0-25.782 19.916-46.898 45.2-48.839z" fill="#cbe558"/><g id="XMLID_638_"><path id="XMLID_665_" d="m273.374 301.668c-11.709-11.157-28.444-14.712-43.676-9.27-18.724 6.687-31.304 24.538-31.304 44.42v15.872c0 21.399 17.41 38.809 38.809 38.809 14.171 0 27.208-7.718 34.025-20.143l10.098-18.407c9.27-16.896 6-37.984-7.952-51.281zm-9.583 41.662-10.098 18.408c-3.304 6.021-9.622 9.762-16.49 9.762-10.371 0-18.809-8.438-18.809-18.809v-15.872c0-11.452 7.246-21.733 18.03-25.586 2.502-.894 5.081-1.329 7.633-1.329 5.683 0 11.236 2.162 15.519 6.243 7.396 7.048 9.13 18.226 4.215 27.183z"/><path id="XMLID_673_" d="m417.513 466.839-27.929 27.929c-3.905 3.905-3.906 10.237 0 14.143 1.953 1.952 4.512 2.929 7.071 2.929s5.119-.977 7.071-2.929l27.929-27.929c3.905-3.905 3.906-10.237 0-14.143-3.905-3.903-10.237-3.903-14.142 0z"/><path id="XMLID_682_" d="m499.813 248.998c-7.743-6.513-17.899-9.257-27.869-7.52-16.416 2.855-28.331 17.021-28.331 33.685v19.659c-11.918-25.759-29.133-49.022-50.771-68.159l17.75-22.525c8.195 4.318 17.517 6.776 27.406 6.776 29.155 0 53.96-21.658 58.308-50.063 9.875-8.971 15.656-21.856 15.656-35.29 0-26.253-21.359-47.611-47.612-47.611-13.434 0-26.319 5.781-35.29 15.656-28.404 4.348-50.062 29.153-50.062 58.308 0 15.447 5.975 29.52 15.725 40.048l-17.486 22.19c-32.43-23.51-71.057-37.11-111.24-39.051v-27.751c8.974 5.183 19.244 7.991 30.013 7.991 33.139 0 60.1-26.961 60.1-60.101 0-25.864-16.396-48.53-40.462-56.813-10.587-23.105-33.943-38.3-59.651-38.3s-49.064 15.194-59.651 38.3c-24.066 8.282-40.462 30.948-40.462 56.813 0 33.14 26.961 60.101 60.1 60.101 10.769 0 21.039-2.808 30.013-7.991v27.75c-40.18 1.941-78.81 15.54-111.24 39.05l-17.485-22.189c9.75-10.528 15.725-24.601 15.725-40.048 0-29.154-21.658-53.96-50.062-58.308-8.971-9.875-21.856-15.656-35.29-15.656-26.253 0-47.612 21.358-47.612 47.611 0 13.434 5.781 26.319 15.656 35.29 4.348 28.404 29.153 50.063 58.308 50.063 9.889 0 19.211-2.458 27.406-6.776l17.75 22.525c-21.636 19.135-38.853 42.398-50.771 68.157v-19.657c0-16.662-11.915-30.829-28.332-33.686-9.968-1.731-20.125 1.008-27.868 7.521-7.742 6.512-12.182 16.049-12.182 26.166v56.858c0 44.251 17.232 85.853 48.522 117.143l59.747 59.747c1.953 1.952 4.512 2.929 7.071 2.929s5.119-.977 7.071-2.929c3.905-3.905 3.905-10.237 0-14.143l-59.748-59.747c-27.511-27.512-42.663-64.092-42.663-103v-56.858c0-4.198 1.843-8.157 5.057-10.859 3.213-2.704 7.428-3.839 11.567-3.122 6.813 1.186 11.759 7.065 11.759 13.981v63.488c0 20.408 7.948 39.596 22.379 54.028l54.238 54.238 4.031 4.031c3.906 3.904 10.237 3.905 14.143 0 3.905-3.905 3.905-10.237 0-14.143l-56.739-56.739c-6.654-6.653-6.654-17.479 0-24.133 6.653-6.654 17.48-6.654 24.133 0l45.469 45.469c1.875 1.875 4.419 2.929 7.071 2.929 19.375 0 37.59 7.545 51.29 21.245 20.378 20.378 31.601 47.472 31.601 76.291 0 5.522 4.477 10 10 10s10-4.478 10-10c0-28.819 11.223-55.913 31.601-76.291 13.699-13.7 31.914-21.245 51.289-21.245 2.652 0 5.196-1.054 7.071-2.929l45.468-45.469c6.654-6.654 17.48-6.652 24.134 0 6.654 6.653 6.654 17.479 0 24.133l-56.739 56.739c-3.905 3.905-3.905 10.237 0 14.143 1.953 1.952 4.512 2.929 7.071 2.929s5.119-.977 7.071-2.929l4.031-4.031 54.238-54.238c14.431-14.433 22.379-33.62 22.379-54.028v-63.488c0-6.916 4.945-12.796 11.758-13.98 4.135-.721 8.354.416 11.567 3.121 3.214 2.702 5.057 6.661 5.057 10.859v56.858c0 24.093-6.053 48.033-17.505 69.233-2.625 4.859-.813 10.927 4.046 13.552 4.856 2.621 10.925.813 13.551-4.046 13.024-24.111 19.908-51.339 19.908-78.739v-56.858c0-10.117-4.44-19.654-12.182-26.165zm-64.85-135.953c2.877-.221 5.519-1.674 7.246-3.986 5.273-7.061 13.343-11.109 22.14-11.109 15.226 0 27.612 12.387 27.612 27.611 0 8.797-4.049 16.866-11.11 22.141-2.312 1.728-3.765 4.369-3.986 7.246-1.548 20.168-18.622 35.966-38.868 35.966-21.505 0-39-17.495-39-39 .001-20.247 15.798-37.32 35.966-38.869zm-259.079-17.805c0-18.428 12.467-34.421 30.318-38.894 3.217-.806 5.826-3.155 6.963-6.271 6.541-17.913 23.753-29.948 42.832-29.948s36.292 12.035 42.832 29.948c1.138 3.115 3.746 5.465 6.963 6.271 17.851 4.473 30.318 20.466 30.318 38.894 0 22.111-17.989 40.101-40.1 40.101-10.684 0-20.636-4.139-28.091-11.499l18.105-18.105c3.905-3.905 3.905-10.237 0-14.143-3.905-3.904-10.237-3.904-14.143 0l-5.885 5.885v-33.639c0-5.522-4.477-10-10-10s-10 4.478-10 10v43.726l-15.929-15.929c-3.905-3.904-10.237-3.904-14.143 0-3.905 3.905-3.905 10.237 0 14.143l22.622 22.622c-6.554 4.481-14.341 6.938-22.564 6.938-22.109 0-40.098-17.989-40.098-40.1zm-140.755 59.708c-.221-2.877-1.674-5.519-3.986-7.246-7.061-5.274-11.11-13.344-11.11-22.141 0-15.225 12.387-27.611 27.612-27.611 8.797 0 16.867 4.049 22.14 11.109 1.727 2.313 4.369 3.766 7.246 3.986 20.168 1.549 35.966 18.621 35.966 38.868 0 21.505-17.495 39-39 39-20.246.001-37.319-15.797-38.868-35.965zm38.809 185.303c5.896-26.076 17.269-49.986 32.772-70.56h28.868c13.609 0 24.681 11.071 24.681 24.681 0 7.786-3.735 15.2-9.992 19.833-10.59 7.844-18.137 19.028-21.651 31.494l-3.907-3.907c-13.916-13.916-36.232-14.425-50.771-1.541zm270.713 44.175c-23.126 1.035-44.72 10.533-61.194 27.008-11.875 11.875-21.121 25.677-27.459 40.697-6.338-15.02-15.584-28.823-27.458-40.697-16.475-16.475-38.069-25.973-61.195-27.008l-20.957-20.957v-1.862c0-12.299 5.9-24.011 15.783-31.331 11.327-8.388 18.088-21.811 18.088-35.905 0-24.637-20.043-44.681-44.681-44.681h-11.464c34.065-33.982 80.984-54.838 131.884-54.838 34.819 0 67.769 9.751 96.017 26.785-28.807 8.665-49.857 35.421-49.857 67.014 0 23.889 11.988 45.877 32.069 58.819l20.797 13.401c2.644 1.704 4.969 3.831 6.905 6.274zm42.634-42.634-11.159 11.16c-2.978-3.412-6.424-6.413-10.267-8.89l-20.798-13.401c-14.341-9.243-22.903-24.947-22.903-42.008 0-27.557 22.418-49.976 49.975-49.976h3.724c30.607 25.672 53.03 61.003 62.202 101.575-14.539-12.885-36.856-12.377-50.774 1.54z"/><path id="XMLID_1075_" d="m456.407 432.097c-2.64 0-5.22 1.061-7.08 2.92-1.86 1.86-2.92 4.44-2.92 7.08 0 2.63 1.06 5.2 2.92 7.07 1.87 1.86 4.44 2.93 7.08 2.93 2.63 0 5.2-1.069 7.07-2.93 1.86-1.87 2.93-4.44 2.93-7.07 0-2.64-1.07-5.21-2.93-7.08-1.87-1.859-4.439-2.92-7.07-2.92z"/></g></g></svg>