<svg id="Capa_1" enable-background="new 0 0 512 512" height="512" viewBox="0 0 512 512" width="512" xmlns="http://www.w3.org/2000/svg"><g><g id="Sociology_1_"><g><g><path d="m256 90c-24.814 0-45-20.186-45-45s20.186-45 45-45 45 20.186 45 45-20.186 45-45 45z" fill="#c86e59"/></g></g><g><g><g><g><path d="m331 180h-150v-15c0-41.353 33.633-75 75-75s75 33.647 75 75z" fill="#fabe2c"/></g></g></g></g><g><g><path d="m75 391c-24.814 0-45-20.186-45-45s20.186-45 45-45 45 20.186 45 45-20.186 45-45 45z" fill="#ffd9b3"/></g></g><g><g><g><g><path d="m150 481h-150v-15c0-41.353 33.633-75 75-75s75 33.647 75 75z" fill="#57d9ad"/></g></g></g></g><g><path d="m153.347 342.07h85.365v29.993h-85.365z" fill="#bcf7fc" transform="matrix(.825 -.565 .565 .825 -167.362 173.025)"/></g><g><path d="m241 211h30v75h-30z" fill="#bcf7fc"/></g><g><g><g><path d="m300.974 314.384h29.993v85.365h-29.993z" fill="#9df" transform="matrix(.565 -.825 .825 .565 -157.171 415.988)"/></g></g></g><g><g><g><path d="m100.199 261.508-28.301-9.902c10.811-30.952 29.502-58.945 54.111-80.947l19.98 22.354c-20.8 18.632-36.62 42.303-45.79 68.495z" fill="#bcf7fc"/></g></g></g><g><g><g><path d="m411.801 261.508c-9.17-26.191-24.99-49.863-45.791-68.496l19.98-22.354c24.609 22.002 43.301 49.995 54.111 80.947z" fill="#9df"/></g></g></g><g><path d="m256 512c-22.295 0-44.15-3.735-65.01-11.104l10.02-28.271c35.215 12.451 74.766 12.451 109.98 0l10.02 28.271c-20.86 7.369-42.715 11.104-65.01 11.104z" fill="#bcf7fc"/></g></g><g><g><g><g><path d="m437 391c-24.814 0-45-20.186-45-45s20.186-45 45-45 45 20.186 45 45-20.186 45-45 45z" fill="#fb9"/></g></g></g></g><g><g><g><g><path d="m512 481h-150v-15c0-41.353 33.633-75 75-75s75 33.647 75 75z" fill="#26bfa6"/></g></g></g></g><path d="m321.01 500.896-10.02-28.271c-17.607 6.226-36.299 9.338-54.99 9.338v30.037c22.295 0 44.15-3.735 65.01-11.104z" fill="#9df"/><path d="m301 45c0-24.814-20.186-45-45-45v90c24.814 0 45-20.186 45-45z" fill="#a34f3e"/><path d="m331 180v-15c0-41.353-33.633-75-75-75v90z" fill="#ff9100"/><path d="m256 211h15v75h-15z" fill="#9df"/><g><path d="m256 361c-24.814 0-45-20.186-45-45s20.186-45 45-45 45 20.186 45 45-20.186 45-45 45z" fill="#bcf7fc"/></g><path d="m301 316c0-24.814-20.186-45-45-45v90c24.814 0 45-20.186 45-45z" fill="#9df"/></g></svg>