<svg id="Capa_1" enable-background="new 0 0 512 512" height="512" viewBox="0 0 512 512" width="512" xmlns="http://www.w3.org/2000/svg"><g><g><g><g><g><g><g><g><g><g><path d="m222.183 116.896 29.911 76.362h-69.547l9.112-47.583c2.39-12.457 11.376-22.618 23.449-26.503z" fill="#5b5555"/><path d="m329.453 193.258h-69.547l29.911-76.362 7.075 2.275c12.072 3.886 21.059 14.046 23.449 26.503z" fill="#5b5555"/><path d="m329.453 193.269h-24.093l-9.112-53.64c-1.195-7.002-4.031-13.361-8.073-18.524l1.642-4.208 7.075 2.275c12.072 3.896 21.059 14.057 23.449 26.503z" fill="#444"/><path d="m293.434 118.064-37.434 95.566-37.433-95.566 37.433-12.072z" fill="#efe2dd"/><path d="m269.757 84.528v30.223c0 7.598-6.159 13.757-13.757 13.757-7.598 0-13.757-6.159-13.757-13.757v-30.223z" fill="#ba5d4f"/></g></g><path d="m256 9.375c-20.148 0-36.482 16.334-36.482 36.482v15.851c0 18.667 16.334 36.014 36.482 36.014s36.482-17.347 36.482-36.014v-15.851c0-20.149-16.333-36.482-36.482-36.482z" fill="#c86f5c"/><path d="m292.484 45.861v15.846c0 18.67-16.337 36.009-36.48 36.009-3.969 0-7.785-.675-11.365-1.903 14.588-4.982 25.114-19.11 25.114-34.107v-15.845c0-16.184-10.527-29.912-25.114-34.69 3.58-1.166 7.396-1.8 11.365-1.8 20.142 0 36.48 16.337 36.48 36.49z" fill="#ba5d4f"/><path d="m256 97.717c-4.873 0-9.506-1.008-13.756-2.805v16.478c4.405 1.247 9.018 1.912 13.756 1.912s9.35-.665 13.756-1.912v-16.478c-4.249 1.798-8.883 2.805-13.756 2.805z" fill="#b55247"/></g></g></g></g></g></g><g><path d="m184.935 219.316h142.13v171.275h-142.13z" fill="#a34f41"/><path d="m327.064 219.32v171.27h-26.337v-122.831c0-9.039-7.328-16.367-16.367-16.367h-99.423v-32.072z" fill="#873f30"/><path d="m344.962 226.339h-177.923c-5.758 0-10.426-4.668-10.426-10.426v-16.765c0-5.758 4.668-10.426 10.426-10.426h177.922c5.758 0 10.426 4.668 10.426 10.426v16.765c.001 5.758-4.667 10.426-10.425 10.426z" fill="#ba5d4f"/><path d="m355.386 199.143v16.769c0 5.756-4.665 10.431-10.421 10.431h-25.932c5.756 0 10.421-4.675 10.421-10.431v-16.769c0-5.756-4.665-10.421-10.421-10.421h25.932c5.756.001 10.421 4.666 10.421 10.421z" fill="#a34f41"/></g><g><g><g><g><g><g><g><g><g><path d="m320.542 493.496h-129.087l9.374-111.556c1.234-14.68 11.168-27.181 25.19-31.699l29.979-9.658 29.979 9.658c14.022 4.517 23.957 17.018 25.19 31.699z" fill="#bcea73"/><path d="m320.54 493.5h-26.775l-9.375-117.797c-1.013-12.726-2.693-23.899-12.871-30.116l14.46 4.656c14.022 4.519 23.954 17.016 25.186 31.695z" fill="#a3e440"/></g></g><path d="m255.999 273.944c-17.704 0-32.055 14.352-32.055 32.055v13.927c0 16.402 14.352 31.644 32.055 31.644s32.055-15.242 32.055-31.644v-13.927c0-17.703-14.352-32.055-32.055-32.055z" fill="#d5887a"/><path d="m288.055 306.003v13.923c0 16.404-14.355 31.64-32.053 31.64-3.487 0-6.84-.593-9.986-1.672 12.818-4.377 22.067-16.791 22.067-29.968v-13.923c0-14.22-9.249-26.283-22.067-30.48 3.146-1.025 6.499-1.582 9.986-1.582 17.698 0 32.053 14.355 32.053 32.062z" fill="#c86f5c"/></g></g></g></g></g></g><g><g><g><g><g><g><g><g><path d="m449.633 493.496h-129.087l9.374-111.556c1.234-14.68 11.168-27.181 25.19-31.699l29.979-9.658 29.979 9.658c14.022 4.517 23.957 17.018 25.19 31.699z" fill="#fcb44d"/><path d="m449.631 493.5h-26.775l-9.375-117.797c-1.013-12.726-2.693-23.899-12.871-30.116l14.46 4.656c14.022 4.519 23.954 17.016 25.186 31.695z" fill="#fb9927"/></g></g><path d="m385.089 273.944c-17.704 0-32.055 14.352-32.055 32.055v13.927c0 16.402 14.352 31.644 32.055 31.644 17.704 0 32.055-15.242 32.055-31.644v-13.927c0-17.703-14.351-32.055-32.055-32.055z" fill="#a34f41"/><path d="m417.145 306.003v13.923c0 16.404-14.355 31.64-32.053 31.64-3.487 0-6.84-.593-9.986-1.672 12.818-4.377 22.067-16.791 22.067-29.968v-13.923c0-14.22-9.249-26.283-22.067-30.48 3.146-1.025 6.499-1.582 9.986-1.582 17.698 0 32.053 14.355 32.053 32.062z" fill="#873f30"/></g></g></g></g></g></g><g><g><g><g><g><g><g><g><path d="m191.455 493.496h-129.087l9.374-111.556c1.234-14.68 11.168-27.181 25.19-31.699l29.979-9.658 29.979 9.658c14.022 4.517 23.957 17.018 25.19 31.699z" fill="#27d1b3"/><path d="m191.459 493.5h-26.784l-9.375-117.797c-1.013-12.726-2.683-23.89-12.853-30.116l14.442 4.656c14.022 4.519 23.963 17.016 25.195 31.695z" fill="#20b69f"/></g></g><path d="m126.912 273.944c-17.704 0-32.055 14.352-32.055 32.055v13.927c0 16.402 14.352 31.644 32.055 31.644s32.055-15.242 32.055-31.644v-13.927c0-17.703-14.352-32.055-32.055-32.055z" fill="#ffcec0"/><path d="m158.968 306.003v13.923c0 16.404-14.355 31.64-32.053 31.64-3.487 0-6.84-.593-9.986-1.672 12.818-4.377 22.067-16.791 22.067-29.968v-13.923c0-14.22-9.249-26.283-22.067-30.48 3.146-1.025 6.499-1.582 9.986-1.582 17.698 0 32.053 14.355 32.053 32.062z" fill="#fdb0a0"/></g></g></g></g></g></g></g><g><g><g><g><g><g><g><g><g><g><path d="m114.342 502.625h-103.949c-6.522 0-11.431-5.939-10.204-12.344l5.646-29.467c2.097-10.943 9.994-19.871 20.6-23.288l35.933-11.576 35.933 11.576c10.605 3.416 18.503 12.345 20.6 23.288l5.646 29.467c1.226 6.405-3.683 12.344-10.205 12.344z" fill="#fb3a82"/><path d="m114.342 502.629h-13.797l-8.006-47.132c-1.607-9.43-1.405-17.527-8.407-22.539l14.168 4.564c10.608 3.423 18.504 12.351 20.604 23.287l5.643 29.476c1.226 6.406-3.683 12.344-10.205 12.344z" fill="#fb1466"/></g></g><path d="m62.367 359.31c-17.704 0-32.055 14.352-32.055 32.055v13.927c0 16.402 14.352 31.644 32.055 31.644s32.055-15.242 32.055-31.644v-13.927c0-17.703-14.351-32.055-32.055-32.055z" fill="#a34f41"/><path d="m94.423 391.369v13.923c0 16.404-14.355 31.64-32.053 31.64-3.487 0-6.84-.593-9.986-1.672 12.818-4.377 22.067-16.791 22.067-29.968v-13.923c0-14.22-9.249-26.283-22.067-30.48 3.146-1.025 6.499-1.582 9.986-1.582 17.698 0 32.053 14.354 32.053 32.062z" fill="#873f30"/></g></g></g></g></g></g><g><g><g><g><g><g><g><g><path d="m243.429 502.625h-103.949c-6.522 0-11.431-5.939-10.204-12.344l5.646-29.467c2.097-10.943 9.994-19.871 20.6-23.288l35.933-11.576 35.933 11.576c10.605 3.416 18.503 12.345 20.6 23.288l5.646 29.467c1.226 6.405-3.683 12.344-10.205 12.344z" fill="#21c1f8"/><path d="m243.429 502.629h-13.795l-8.006-47.132c-1.607-9.43-1.405-17.527-8.407-22.539l14.168 4.564c10.608 3.423 18.504 12.351 20.594 23.287l5.649 29.474c1.229 6.407-3.68 12.346-10.203 12.346z" fill="#1faaee"/></g></g><path d="m191.454 359.31c-17.704 0-32.055 14.352-32.055 32.055v13.927c0 16.402 14.352 31.644 32.055 31.644s32.055-15.242 32.055-31.644v-13.927c.001-17.703-14.351-32.055-32.055-32.055z" fill="#ffcec0"/><path d="m223.511 391.369v13.923c0 16.404-14.355 31.64-32.053 31.64-3.487 0-6.84-.593-9.986-1.672 12.818-4.377 22.067-16.791 22.067-29.968v-13.923c0-14.22-9.249-26.283-22.067-30.48 3.146-1.025 6.499-1.582 9.986-1.582 17.698 0 32.053 14.354 32.053 32.062z" fill="#fdb0a0"/></g></g></g></g></g></g></g><g><g><g><g><g><g><g><g><g><path d="m372.516 502.625h-103.949c-6.522 0-11.431-5.939-10.204-12.344l5.646-29.467c2.097-10.943 9.994-19.871 20.6-23.288l35.933-11.576 35.933 11.576c10.605 3.416 18.503 12.345 20.6 23.288l5.646 29.467c1.226 6.405-3.683 12.344-10.205 12.344z" fill="#fc95bb"/><path d="m372.519 502.629h-13.795l-8.015-47.132c-1.598-9.43-1.396-17.527-8.398-22.539l14.168 4.564c10.598 3.423 18.495 12.351 20.594 23.287l5.649 29.474c1.228 6.407-3.681 12.346-10.203 12.346z" fill="#fc78a8"/></g></g><path d="m320.542 359.31c-17.704 0-32.055 14.352-32.055 32.055v13.927c0 16.402 14.352 31.644 32.055 31.644s32.055-15.242 32.055-31.644v-13.927c0-17.703-14.352-32.055-32.055-32.055z" fill="#fdb0a0"/><path d="m352.598 391.369v13.923c0 16.404-14.355 31.64-32.053 31.64-3.487 0-6.84-.593-9.986-1.672 12.818-4.377 22.067-16.791 22.067-29.968v-13.923c0-14.22-9.249-26.283-22.067-30.48 3.146-1.025 6.499-1.582 9.986-1.582 17.698 0 32.053 14.354 32.053 32.062z" fill="#f69583"/></g></g></g></g></g></g></g><g><g><g><g><g><g><g><g><g><path d="m501.605 502.625h-103.95c-6.522 0-11.431-5.939-10.204-12.344l5.646-29.467c2.097-10.943 9.994-19.871 20.6-23.288l35.933-11.576 35.933 11.576c10.605 3.416 18.503 12.345 20.6 23.288l5.646 29.467c1.227 6.405-3.682 12.344-10.204 12.344z" fill="#f3eae6"/><path d="m501.607 502.629h-13.795l-8.015-47.132c-1.598-9.43-1.396-17.527-8.398-22.539l14.168 4.564c10.598 3.423 18.495 12.351 20.594 23.287l5.649 29.474c1.229 6.407-3.681 12.346-10.203 12.346z" fill="#e0d3ce"/></g></g><path d="m449.63 359.31c-17.704 0-32.055 14.352-32.055 32.055v13.927c0 16.402 14.352 31.644 32.055 31.644 17.704 0 32.055-15.242 32.055-31.644v-13.927c0-17.703-14.351-32.055-32.055-32.055z" fill="#fdb0a0"/><path d="m481.686 391.369v13.923c0 16.404-14.355 31.64-32.053 31.64-3.487 0-6.84-.593-9.986-1.672 12.818-4.377 22.067-16.791 22.067-29.968v-13.923c0-14.22-9.249-26.283-22.067-30.48 3.146-1.025 6.499-1.582 9.986-1.582 17.698 0 32.053 14.354 32.053 32.062z" fill="#f69583"/></g></g></g></g></g></g></g></g><g><path d="m388.1 77.959c-12.31-.489-23.937 2.225-34.145 7.349-.726.365-1.523.564-2.336.564h-23.109c-2.869 0-5.195 2.326-5.195 5.195v23.109c0 .813-.199 1.609-.564 2.336-5.125 10.208-7.838 21.835-7.349 34.145 1.446 36.427 31.2 65.922 67.638 67.054 40.378 1.255 73.369-31.736 72.114-72.115-1.133-36.438-30.628-66.191-67.054-67.637z" fill="#fcb44d"/><path d="m383.043 217.716c-3.616-.114-7.169-.499-10.639-1.164 33.163-6.171 58.098-35.75 57.007-70.96-1.029-33.018-25.34-60.539-56.986-66.503 5.049-.945 10.296-1.351 15.678-1.132 36.425 1.444 65.921 31.2 67.053 67.635 1.258 40.384-31.739 73.37-72.113 72.124z" fill="#fb9927"/></g></g><path d="m425.12 149.288h-.078v-19.507c1.974-1.414 3.264-3.72 3.264-6.333 0-4.303-3.488-7.792-7.792-7.792h-25.211c-.08-4.234-3.531-7.643-7.784-7.643-4.254 0-7.704 3.409-7.784 7.643h-25.212c-4.304 0-7.792 3.489-7.792 7.792 0 2.613 1.291 4.92 3.265 6.334v19.507h-.078c-4.304 0-7.792 3.489-7.792 7.792s3.488 7.792 7.792 7.792h15.74c4.304 0 7.792-3.489 7.792-7.792s-3.488-7.792-7.792-7.792h-.078v-18.049h14.147v40.811h-8.648c-4.304 0-7.792 3.489-7.792 7.792s3.488 7.792 7.792 7.792h32.88c4.304 0 7.792-3.489 7.792-7.792s-3.488-7.792-7.792-7.792h-8.647v-40.811h14.147v18.049h-.078c-4.304 0-7.792 3.489-7.792 7.792s3.488 7.792 7.792 7.792h15.74c4.304 0 7.792-3.489 7.792-7.792s-3.489-7.793-7.793-7.793z" fill="#444"/></g></svg>