<?xml version="1.0" encoding="iso-8859-1"?>
<!-- Generator: Adobe Illustrator 19.0.0, SVG Export Plug-In . SVG Version: 6.00 Build 0)  -->
<svg version="1.1" id="Layer_1" xmlns="http://www.w3.org/2000/svg" xmlns:xlink="http://www.w3.org/1999/xlink" x="0px" y="0px"
	 viewBox="0 0 512 512" style="enable-background:new 0 0 512 512;" xml:space="preserve">
<path style="fill:#55C6A1;" d="M512,256c0,26.248-3.953,51.585-11.303,75.424v0.011c-5.84,18.986-13.835,37.029-23.694,53.839
	c-44.435,75.812-126.776,126.72-220.997,126.72c-13.302,0-26.37-1.01-39.128-2.976C94.066,490.188,0,384.086,0,256
	C0,114.612,114.618,0.006,256.006,0.006C397.382,0.006,512,114.612,512,256z"/>
<path style="fill:#C9621C;" d="M420.132,217.794c0,3.953-0.122,7.872-0.355,11.769H341.3c1.022,17.11,4.23,33.887,9.504,49.953
	c-8.294-0.666-16.621-1.01-24.938-1.022c-4.519-15.844-7.261-32.244-8.15-48.932h-76.712v60.268
	c-7.928,2.165-15.778,4.652-23.539,7.461v-67.729h-76.712c-2.465,46.611-19.475,91.013-48.776,127.253
	c-5.674-5.596-10.992-11.514-15.944-17.765c24.471-31.511,38.783-69.572,41.137-109.488H34.209
	c-0.233-3.897-0.344-7.817-0.344-11.769c0-3.953,0.111-7.872,0.344-11.769h82.963c-2.354-39.916-16.666-77.977-41.137-109.488
	c4.952-6.251,10.27-12.169,15.944-17.754c29.301,36.252,46.311,80.642,48.776,127.242h76.712V22.778
	c3.897-0.233,7.817-0.355,11.769-0.355c3.953,0,7.872,0.122,11.769,0.355v183.247h76.712c2.465-46.6,19.475-90.99,48.787-127.242
	c5.674,5.585,10.992,11.503,15.933,17.754c-24.46,31.511-38.772,69.572-41.137,109.488h78.477
	C420.01,209.922,420.132,213.841,420.132,217.794z"/>
<g>
	<path style="fill:#FC842B;" d="M382.437,96.536c0.766-0.966,1.521-1.932,2.298-2.887c24.915,31.167,40.66,69.983,43.136,112.375
		h-8.094H341.3C343.665,166.109,357.977,128.047,382.437,96.536z"/>
	<path style="fill:#FC842B;" d="M419.777,229.563h8.094c-1.266,21.651-5.985,42.359-13.635,61.6
		c-20.763-6.051-42.025-9.926-63.432-11.647c-5.274-16.066-8.483-32.843-9.504-49.953H419.777z"/>
	<path style="fill:#FC842B;" d="M325.867,278.495c-0.2,0-0.4,0-0.6,0c-28.369,0-56.737,3.775-84.262,11.336v-60.268h76.712
		C318.605,246.251,321.348,262.651,325.867,278.495z"/>
	<path style="fill:#FC842B;" d="M368.803,75.973c-0.777,0.933-1.543,1.865-2.298,2.809c-29.312,36.252-46.322,80.642-48.787,127.242
		h-76.712V22.778V19.17C290.703,22.068,335.504,43.197,368.803,75.973z"/>
	<path style="fill:#FC842B;" d="M76.034,96.536c24.471,31.511,38.783,69.572,41.137,109.488H34.209h-3.597
		c2.476-42.392,18.22-81.208,43.136-112.375C74.524,94.604,75.279,95.57,76.034,96.536z"/>
	<path style="fill:#FC842B;" d="M76.034,339.052c-0.755,0.966-1.51,1.932-2.287,2.887c-24.915-31.167-40.66-69.983-43.136-112.375
		h3.597h82.963C114.818,269.479,100.506,307.541,76.034,339.052z"/>
	<path style="fill:#FC842B;" d="M217.466,229.563v67.729c-43.202,15.578-83.629,40.837-117.805,75.79l-0.022,0.011l-9.96-13.479
		c0.777-0.933,1.543-1.865,2.298-2.798c29.301-36.241,46.311-80.642,48.776-127.253L217.466,229.563L217.466,229.563z"/>
	<path style="fill:#FC842B;" d="M217.466,22.778v183.247h-76.712c-2.465-46.6-19.475-90.99-48.776-127.242
		c-0.755-0.944-1.521-1.876-2.298-2.809c33.298-32.777,78.1-53.906,127.786-56.804V22.778z"/>
</g>
<path style="fill:#99460E;" d="M500.864,331.535l-0.167-0.1c0,0-1.521,4.075-3.919,10.126
	c-4.819,12.202-13.179,32.477-19.775,43.713c-44.435,75.812-126.776,126.72-220.997,126.72c-13.302,0-26.37-1.01-39.128-2.976
	c-44.979-16.322-86.927-43.147-121.935-80.498c-5.352-5.696-10.537-11.636-15.544-17.832c-1.754-2.165-2.631-4.797-2.631-7.428
	s0.877-5.263,2.631-7.428c6.462-7.983,13.213-15.567,20.241-22.739l0.022-0.011c34.176-34.953,74.602-60.212,117.805-75.79
	c7.761-2.809,15.611-5.296,23.539-7.461c27.525-7.561,55.893-11.336,84.262-11.336h0.6c8.316,0.011,16.644,0.355,24.938,1.021
	c21.407,1.721,42.669,5.596,63.432,11.647c21.607,6.296,42.669,14.923,62.766,25.915c2.798,1.521,5.585,3.098,8.338,4.719
	c0.355,0.211,0.7,0.411,1.055,0.622c1.266,0.744,2.52,1.51,3.775,2.276c1.266,0.766,2.532,1.554,3.797,2.354
	c0.444,0.289,0.899,0.566,1.355,0.866c0.844,0.533,1.677,1.077,2.52,1.621c0.955,0.622,1.91,1.255,2.854,1.888
	C500.764,331.468,500.819,331.501,500.864,331.535z"/>
<path style="fill:#AA5013;" d="M496.778,341.561c-4.819,12.202-13.179,32.477-19.775,43.713
	c-44.435,75.812-126.776,126.72-220.997,126.72c-13.302,0-26.37-1.01-39.128-2.976c-44.979-16.322-86.927-43.147-121.935-80.498
	c0.422-0.955,0.977-1.865,1.654-2.698c6.606-8.172,13.524-15.933,20.718-23.283l0.022-0.011
	c34.986-35.785,76.368-61.645,120.603-77.589c7.939-2.876,15.977-5.418,24.094-7.639c28.18-7.739,57.226-11.603,86.26-11.603h0.622
	c8.505,0.011,17.032,0.366,25.526,1.044c21.918,1.765,43.68,5.729,64.931,11.925C459.06,324.407,478.291,332.023,496.778,341.561z"
	/>
<path style="fill:#723307;" d="M441.746,334.96c-87.722-15.97-148.927-15.969-236.648,0l2.538,13.941
	c60.184-10.955,171.389-10.955,231.573,0L441.746,334.96z"/>
<g>
	<path style="fill:#CCCCCC;" d="M207.629,364.881c-2.105,0-3.974-1.502-4.365-3.646l-6.671-36.645
		c-0.44-2.413,1.161-4.726,3.574-5.165c2.412-0.435,4.727,1.16,5.165,3.574l6.671,36.645c0.44,2.414-1.161,4.726-3.575,5.165
		C208.16,364.858,207.893,364.881,207.629,364.881z"/>
	<path style="fill:#CCCCCC;" d="M323.422,354.427c-2.453,0-4.441-1.989-4.441-4.441v-37.247c0-2.453,1.989-4.441,4.441-4.441
		s4.441,1.989,4.441,4.441v37.247C327.863,352.439,325.874,354.427,323.422,354.427z"/>
	<path style="fill:#CCCCCC;" d="M284.682,355.589c-2.332,0-4.287-1.818-4.429-4.175l-2.233-37.18
		c-0.147-2.448,1.719-4.552,4.168-4.699c2.429-0.144,4.552,1.718,4.699,4.167l2.233,37.18c0.147,2.448-1.72,4.552-4.168,4.699
		C284.862,355.586,284.772,355.589,284.682,355.589z"/>
	<path style="fill:#CCCCCC;" d="M362.161,355.589c-0.09,0-0.18-0.002-0.27-0.008c-2.448-0.147-4.315-2.251-4.168-4.699l2.232-37.18
		c0.148-2.449,2.288-4.311,4.699-4.167c2.448,0.147,4.315,2.251,4.168,4.699l-2.232,37.18
		C366.449,353.772,364.492,355.589,362.161,355.589z"/>
	<path style="fill:#CCCCCC;" d="M246.049,359.074c-2.216,0-4.133-1.655-4.405-3.911l-4.457-36.979
		c-0.293-2.435,1.443-4.648,3.878-4.941c2.443-0.292,4.648,1.443,4.941,3.878l4.457,36.979c0.293,2.435-1.443,4.648-3.878,4.941
		C246.407,359.063,246.226,359.074,246.049,359.074z"/>
	<path style="fill:#CCCCCC;" d="M400.792,359.074c-0.177,0-0.356-0.011-0.536-0.032c-2.435-0.293-4.171-2.505-3.878-4.941
		l4.458-36.98c0.294-2.436,2.512-4.171,4.941-3.877c2.435,0.294,4.171,2.506,3.878,4.941l-4.458,36.979
		C404.924,357.417,403.008,359.074,400.792,359.074z"/>
	<path style="fill:#CCCCCC;" d="M439.213,364.881c-0.264,0-0.532-0.023-0.802-0.072c-2.413-0.44-4.013-2.752-3.574-5.165
		l6.671-36.645c0.44-2.414,2.754-4.01,5.164-3.574c2.414,0.44,4.014,2.751,3.575,5.165l-6.671,36.645
		C443.187,363.379,441.317,364.881,439.213,364.881z"/>
</g>
<path style="fill:#FFFFFF;" d="M139.1,338.919c11.081-8.094,22.584-15.378,34.431-21.851v172.388
	c-11.836-6.462-23.35-13.746-34.431-21.851C139.1,467.605,139.1,338.919,139.1,338.919z"/>
<path style="fill:#E6E6E6;" d="M173.531,317.068v39.649c-11.914,7.639-23.417,16.144-34.431,25.526v-43.325
	C150.181,330.825,161.684,323.542,173.531,317.068z"/>
<path style="fill:#FFFFFF;" d="M500.697,331.424v0.011c-5.84,18.986-13.835,37.029-23.694,53.839v-68.196
	c2.798,1.532,5.574,3.098,8.338,4.719c0.355,0.211,0.7,0.411,1.055,0.622c1.266,0.744,2.52,1.51,3.775,2.276
	c1.266,0.766,2.532,1.554,3.797,2.354c0.444,0.289,0.899,0.566,1.355,0.866c0.844,0.533,1.677,1.077,2.52,1.621
	C498.798,330.158,499.753,330.791,500.697,331.424z"/>
<g>
	<path style="fill:#EA7628;" d="M102.082,141.049c-8.583,20.174-13.968,42.048-15.489,64.976H30.611
		c2.476-42.392,18.22-81.209,43.136-112.375c0.777,0.955,1.532,1.921,2.287,2.887C86.693,110.26,95.421,125.227,102.082,141.049z"/>
	<path style="fill:#EA7628;" d="M101.294,296.36c-6.551,15.156-15.011,29.501-25.26,42.692c-0.755,0.966-1.51,1.932-2.287,2.887
		c-24.915-31.167-40.66-69.983-43.136-112.375h55.76C87.515,253.124,92.711,275.619,101.294,296.36z"/>
	<path style="fill:#EA7628;" d="M130.407,345.503c-10.703,8.394-20.985,17.599-30.745,27.58l-0.022,0.011l-9.96-13.479
		c0.777-0.933,1.543-1.865,2.298-2.798c8.627-10.67,16.188-22.051,22.617-33.987C119.348,330.758,124.633,338.341,130.407,345.503z"
		/>
	<path style="fill:#EA7628;" d="M217.466,19.17v11.914c-42.592,15.733-78.388,45.479-101.805,83.651
		C109,102.077,101.083,90.041,91.979,78.782c-0.755-0.944-1.521-1.876-2.298-2.809C122.979,43.197,167.78,22.068,217.466,19.17z"/>
</g>
<g>
</g>
<g>
</g>
<g>
</g>
<g>
</g>
<g>
</g>
<g>
</g>
<g>
</g>
<g>
</g>
<g>
</g>
<g>
</g>
<g>
</g>
<g>
</g>
<g>
</g>
<g>
</g>
<g>
</g>
</svg>
