<svg id="Capa_1" enable-background="new 0 0 512 512" height="512" viewBox="0 0 512 512" width="512" xmlns="http://www.w3.org/2000/svg"><g><g><path d="m491.971 170.228-9.309-9.309c-1.609-1.609-1.609-4.218 0-5.828l10.101-10.101-7.923-13.932-13.105 13.105c-1.609 1.609-4.218 1.609-5.828 0l-21.598-21.598c-1.609-1.609-1.609-4.218 0-5.828l18.394-18.393c2.991-2.991 3.294-7.905.392-10.984-3.002-3.186-8.019-3.243-11.092-.17l-18.62 18.62c-1.609 1.609-4.218 1.609-5.828 0l-21.597-21.597c-1.609-1.609-1.609-4.218 0-5.828l18.072-18.071c2.991-2.991 3.294-7.905.392-10.984-3.002-3.186-8.019-3.243-11.093-.17l-18.298 18.3c-1.609 1.609-4.218 1.609-5.828 0l-21.603-21.603c-1.609-1.609-1.609-4.218 0-5.828l8.534-8.534-14.201-7.634-5.25 5.25c-1.609 1.609-4.218 1.609-5.828 0l-10.161-10.161c-3.073-3.072-8.089-3.017-11.091.169-2.902 3.079-2.6 7.995.392 10.987l9.929 9.929c1.609 1.609 1.609 4.218 0 5.827l-19.244 19.243c-1.609 1.609-4.218 1.609-5.828 0l-26.18-26.18c-3.073-3.072-8.089-3.017-11.091.169-2.902 3.079-2.6 7.995.392 10.987l25.952 25.952c1.609 1.609 1.609 4.218 0 5.828l-19.244 19.244c-1.609 1.609-4.218 1.609-5.828 0l-32.969-32.969c-2.992-2.992-7.906-3.295-10.986-.395-3.187 3.001-3.244 8.019-.171 11.092l33.198 33.199c1.609 1.609 1.609 4.218 0 5.827l-19.244 19.244c-1.609 1.609-4.218 1.609-5.828 0l-29.428-29.428c-2.992-2.992-7.906-3.295-10.986-.395-3.187 3.001-3.244 8.019-.171 11.092l29.657 29.657c1.609 1.609 1.609 4.218 0 5.828l-19.244 19.244c-1.609 1.609-4.218 1.609-5.828 0l-15.095-15.095c-3.073-3.074-8.092-3.016-11.093.172-2.899 3.08-2.595 7.993.396 10.984l14.866 14.866c1.609 1.609 1.609 4.218 0 5.828l-15.044 15.044c-3.08 3.08-3.25 8.291-.096 11.295 1.49 1.419 3.408 2.129 5.326 2.129 1.977 0 3.955-.755 5.463-2.263l15.278-15.278c1.609-1.609 4.218-1.609 5.828 0l21.598 21.598c1.609 1.609 1.609 4.218 0 5.827l-31.69 31.69c-3.018 3.017-3.018 7.909 0 10.927 1.508 1.509 3.486 2.263 5.463 2.263s3.955-.755 5.463-2.263l31.69-31.69c1.609-1.609 4.218-1.609 5.828 0l21.598 21.598c1.609 1.609 1.609 4.218 0 5.827l-29.758 29.758c-3.018 3.017-3.018 7.91 0 10.927 1.509 1.509 3.486 2.263 5.463 2.263s3.955-.754 5.463-2.263l29.758-29.758c1.609-1.609 4.218-1.609 5.828 0l21.598 21.598c1.609 1.609 1.609 4.218 0 5.828l-15.553 15.553c-3.082 3.082-3.25 8.294-.092 11.298 1.49 1.417 3.406 2.125 5.322 2.125 1.977 0 3.955-.755 5.464-2.263l15.786-15.786c1.609-1.609 4.218-1.609 5.828 0l14.113 14.113c1.509 1.509 3.486 2.263 5.464 2.263 1.917 0 3.835-.71 5.326-2.129 3.155-3.003 2.985-8.214-.095-11.294l-13.881-13.881c-1.609-1.609-1.609-4.218 0-5.828l19.244-19.244c1.609-1.609 4.218-1.609 5.828 0l30.338 30.338c1.509 1.509 3.487 2.263 5.464 2.263 1.917 0 3.835-.71 5.326-2.129 3.155-3.003 2.985-8.214-.095-11.294l-30.106-30.106c-1.609-1.609-1.609-4.218 0-5.828l19.244-19.244c1.609-1.609 4.218-1.609 5.828 0l33.429 33.429c1.509 1.509 3.486 2.263 5.464 2.263 1.917 0 3.836-.71 5.326-2.129 3.154-3.003 2.985-8.214-.095-11.293l-33.197-33.196c-1.609-1.609-1.609-4.218 0-5.828l19.244-19.244c1.609-1.609 4.218-1.609 5.828 0l27.441 27.441c1.509 1.509 3.486 2.263 5.464 2.263 1.917 0 3.835-.71 5.326-2.128 3.155-3.003 2.985-8.214-.095-11.294l-27.208-27.209c-1.609-1.609-1.609-4.218 0-5.827l19.243-19.243c1.609-1.609 4.218-1.609 5.828 0l9.541 9.541c1.509 1.509 3.486 2.263 5.464 2.263 1.917 0 3.836-.71 5.326-2.129 3.155-3.001 2.985-8.212-.095-11.292zm-75.343-47.661-19.244 19.244c-1.609 1.609-4.218 1.609-5.828 0l-21.597-21.598c-1.609-1.609-1.609-4.218 0-5.828l19.244-19.243c1.609-1.609 4.218-1.609 5.828 0l21.597 21.597c1.61 1.609 1.61 4.218 0 5.828zm-82.667 27.817 19.244-19.244c1.609-1.609 4.218-1.609 5.827 0l21.598 21.598c1.609 1.609 1.609 4.218 0 5.828l-19.244 19.244c-1.609 1.609-4.218 1.609-5.828 0l-21.598-21.598c-1.608-1.61-1.608-4.219.001-5.828zm10.671 44.179-19.244 19.244c-1.609 1.609-4.218 1.609-5.827 0l-21.598-21.598c-1.609-1.609-1.609-4.218 0-5.828l19.244-19.244c1.609-1.609 4.218-1.609 5.828 0l21.598 21.598c1.608 1.61 1.608 4.219-.001 5.828zm12.046-137.774 21.598 21.598c1.609 1.609 1.609 4.218 0 5.828l-19.244 19.244c-1.609 1.609-4.218 1.609-5.828 0l-21.597-21.599c-1.609-1.609-1.609-4.218 0-5.828l19.244-19.244c1.609-1.609 4.218-1.609 5.827.001zm-35.998 35.998 21.598 21.598c1.609 1.609 1.609 4.218 0 5.827l-19.244 19.244c-1.609 1.609-4.218 1.609-5.828 0l-21.598-21.598c-1.609-1.609-1.609-4.218 0-5.828l19.244-19.244c1.61-1.608 4.219-1.608 5.828.001zm-35.998 35.998 21.598 21.598c1.609 1.609 1.609 4.218 0 5.828l-19.244 19.244c-1.609 1.609-4.218 1.609-5.827 0l-21.598-21.598c-1.609-1.609-1.609-4.218 0-5.828l19.244-19.244c1.608-1.609 4.218-1.609 5.827 0zm-61.07 55.243 19.244-19.244c1.609-1.609 4.218-1.609 5.828 0l21.598 21.598c1.609 1.609 1.609 4.218 0 5.828l-19.244 19.244c-1.609 1.609-4.218 1.609-5.827 0l-21.598-21.598c-1.61-1.61-1.61-4.219-.001-5.828zm38.352 38.352 19.244-19.244c1.609-1.609 4.218-1.609 5.827 0l21.598 21.598c1.609 1.609 1.609 4.218 0 5.828l-19.244 19.244c-1.609 1.609-4.218 1.609-5.828 0l-21.598-21.598c-1.608-1.609-1.608-4.219.001-5.828zm59.95 65.778-21.598-21.598c-1.609-1.609-1.609-4.218 0-5.828l19.244-19.244c1.609-1.609 4.218-1.609 5.828 0l21.598 21.598c1.609 1.609 1.609 4.218 0 5.828l-19.244 19.244c-1.609 1.609-4.219 1.609-5.828 0zm35.999-35.999-21.598-21.598c-1.609-1.609-1.609-4.218 0-5.828l19.244-19.244c1.609-1.609 4.218-1.609 5.828 0l21.598 21.598c1.609 1.609 1.609 4.218 0 5.828l-19.244 19.244c-1.61 1.61-4.219 1.61-5.828 0zm35.998-35.998-21.598-21.598c-1.609-1.609-1.609-4.218 0-5.827l19.244-19.244c1.609-1.609 4.218-1.609 5.828 0l21.598 21.598c1.609 1.609 1.609 4.218 0 5.828l-19.244 19.244c-1.61 1.608-4.219 1.608-5.828-.001zm35.998-35.998-21.598-21.598c-1.609-1.609-1.609-4.218 0-5.827l19.243-19.244c1.609-1.609 4.218-1.609 5.828 0l21.598 21.598c1.609 1.609 1.609 4.218 0 5.828l-19.244 19.243c-1.608 1.609-4.217 1.609-5.827 0z" fill="#e4eaf8"/><path d="m459.406 52.594c-77.996-77.996-176.425-63.564-246.036 6.047-42.548 42.548-60.096 100.242-52.18 153.804 0 0 4.13 23.06.467 47.855-4.825 32.664-19.609 61.563-43.94 85.894l12.044 36.044 36.178 12.179c24.331-24.331 53.231-39.115 85.894-43.94 24.682-3.646 48.203.409 48.203.409 53.426 7.739 110.902-9.836 153.322-52.256 69.612-69.611 84.044-168.04 6.048-246.036zm-241.078 270.655c-12.946 4.09-26.594 10.008-40.33 18.435-2.159 1.325-4.949.985-6.741-.807-1.791-1.791-2.131-4.582-.807-6.741 8.422-13.729 14.339-27.37 18.429-40.31 1.023-3.235 5.207-4.067 7.35-1.436 3.453 4.239 7.149 8.342 11.094 12.286 3.992 3.992 8.146 7.73 12.439 11.22 2.635 2.142 1.803 6.33-1.434 7.353zm211.032-48.618c-57.413 57.413-147.185 61.058-200.117 8.126s-49.287-142.704 8.126-200.117c30.127-30.127 65.893-47.858 100.709-49.928 17.174-1.021 34.03 1.726 50.1 8.164 17.348 6.951 33.938 18.268 49.307 33.638 15.37 15.37 26.687 31.959 33.638 49.308 6.439 16.07 9.185 32.926 8.164 50.1-2.068 34.816-19.8 70.582-49.927 100.709z" fill="#5d9cec"/><g><g><path d="m51.78 377.609h59.37v105.853h-59.37z" fill="#464655" transform="matrix(.707 .707 -.707 .707 328.295 68.497)"/><g fill="#3c3c4d"><path d="m97.899 372.12-12.981 12.982 24.327 24.327c3.218 3.219 3.218 8.437 0 11.655l-56.04 56.04 11.827 11.827 74.849-74.849z"/><path d="m86.023 388.565h15.452v59.371h-15.452z" transform="matrix(.707 -.707 .707 .707 -268.289 188.794)"/><path d="m62.038 412.551h15.452v59.371h-15.452z" transform="matrix(.707 -.707 .707 .707 -292.275 178.859)"/></g></g></g><g fill="#5089ec"><path d="m228.139 350.477c-29.929 4.422-56.687 17.229-79.677 38.057l17.477 5.883c24.331-24.331 53.231-39.115 85.894-43.94 3.502-.517 6.977-.875 10.368-1.116-9.033-.596-21.39-.755-34.062 1.116z"/><path d="m459.406 52.594c-39.89-39.89-85.124-55.593-129.114-52.114 36.312 2.914 72.667 19.361 105.42 52.114 77.996 77.996 63.564 176.425-6.047 246.036-32.825 32.825-74.665 50.76-116.667 53.614 49.615 3.375 101.353-14.606 140.361-53.614 69.611-69.611 84.043-168.04 6.047-246.036z"/></g><path d="m41.101 509.516-38.616-38.617c-3.901-3.901-3.097-10.43 1.633-13.268l20.669-12.401 41.984 41.984-12.401 20.669c-2.839 4.73-9.367 5.534-13.269 1.633z" fill="#7f8499"/><path d="m54.943 475.386-12.401 20.668c-2.838 4.73-9.366 5.534-13.267 1.634l11.827 11.827c3.901 3.901 10.43 3.097 13.268-1.633l12.401-20.669z" fill="#6f7694"/><path d="m142.103 418.58-48.683-48.683c-3.124-3.124-3.124-8.189 0-11.314l12.685-12.685c3.124-3.124 8.189-3.124 11.314 0l48.683 48.683c3.124 3.124 3.124 8.19 0 11.314l-12.685 12.685c-3.124 3.124-8.189 3.124-11.314 0z" fill="#7f8499"/><path d="m165.932 394.41-48.342-48.342c-3.219-3.219-8.437-3.219-11.655 0l-6.061 6.061 42.281 42.281c3.218 3.218 3.218 8.437 0 11.655l-6.283 6.283 6.061 6.061c3.218 3.218 8.437 3.218 11.655 0l12.344-12.344c3.218-3.218 3.218-8.436 0-11.655z" fill="#6f7694"/></g><g><path d="m110.126 14.359-8.653 1.351-6.799-10.41c-8.124-3.411-17.045-5.3-26.407-5.3-9.363 0-18.284 1.889-26.407 5.3l-8.379 10.067-7.074-1.008c-16.062 12.491-26.407 31.985-26.407 53.908 0 37.703 30.564 68.267 68.267 68.267s68.267-30.564 68.267-68.267c-.001-21.923-10.346-41.417-26.408-53.908z" fill="#a0d468"/><g><g><path d="m72.533 110.126h-8.533c-4.267 0-7.726-3.459-7.726-7.726s3.459-7.726 7.726-7.726h8.533c4.267 0 7.726 3.459 7.726 7.726.001 4.267-3.459 7.726-7.726 7.726z" fill="#e4eaf8"/></g></g><path d="m110.126 14.359-8.653 1.351-6.799-10.41c-8.124-3.411-17.045-5.3-26.407-5.3-4.043 0-7.997.372-11.847 1.046 32.052 5.612 56.419 33.562 56.419 67.221 0 33.66-24.367 61.609-56.419 67.221 3.85.674 7.804 1.046 11.847 1.046 37.703 0 68.267-30.564 68.267-68.267-.001-21.923-10.346-41.417-26.408-53.908z" fill="#76c754"/><path d="m94.674 5.3v28.834c0 14.561-11.846 26.407-26.407 26.407s-26.407-11.847-26.407-26.408v-28.833c-5.568 2.338-10.751 5.404-15.453 9.06v19.774c0 23.082 18.778 41.86 41.86 41.86s41.86-18.778 41.86-41.86v-19.775c-4.703-3.656-9.885-6.722-15.453-9.059z" fill="#e4eaf8"/></g></g></svg>