<svg height="512pt" viewBox="0 0 512 512.00024" width="512pt" xmlns="http://www.w3.org/2000/svg"><path d="m511.957031 15.042969v98.492187c-.902343 93.589844-20.796875 192.882813-158.1875 275.375-2.402343 1.5-5.097656 2.101563-7.800781 2.101563-2.699219 0-5.398438-.601563-7.796875-2.101563-139.789063-83.992187-156.585937-188.085937-157.1875-280.476562v-93.390625c0-5.101563 2.402344-9.597657 6.597656-12.300781 4.199219-2.996094 9.300781-3.300782 14.101563-1.5 46.496094 18.597656 95.390625 27.898437 144.285156 27.898437 48.898438 0 98.792969-9.300781 145.289062-27.898437 4.796876-2.097657 9.898438-1.5 14.101563 1.5 4.195313 2.703124 6.597656 7.199218 6.597656 12.300781zm0 0" fill="#b5baf3"/><path d="m511.957031 15.042969v98.492187c-.902343 93.589844-20.796875 192.882813-158.1875 275.375-2.402343 1.5-5.097656 2.101563-7.800781 2.101563v-361.871094c48.898438 0 98.792969-9.300781 145.289062-27.898437 4.796876-2.097657 9.898438-1.5 14.101563 1.5 4.195313 2.703124 6.597656 7.199218 6.597656 12.300781zm0 0" fill="#7984eb"/><path d="m285.976562 151.03125c-24.8125 0-44.996093-20.183594-44.996093-44.996094 0-8.289062 6.707031-15 14.996093-15 8.292969 0 15 6.710938 15 15 0 8.273438 6.722657 15 15 15 8.273438 0 14.996094-6.726562 14.996094-15 0-8.289062 6.710938-15 15-15 8.289063 0 15 6.710938 15 15 0 24.8125-20.183594 44.996094-44.996094 44.996094zm0 0" fill="#68544f"/><path d="m405.964844 151.03125c-24.8125 0-44.996094-20.183594-44.996094-44.996094 0-8.289062 6.707031-15 15-15 8.289062 0 14.996094 6.710938 14.996094 15 0 8.273438 6.726562 15 15 15 8.277344 0 15-6.726562 15-15 0-8.289062 6.707031-15 14.996094-15 8.292968 0 15 6.710938 15 15 0 24.8125-20.183594 44.996094-44.996094 44.996094zm0 0" fill="#3e322e"/><path d="m405.964844 271.019531c0 8.398438-6.597656 15-15 15-8.398438 0-14.996094-6.601562-14.996094-15 0-16.496093-13.5-29.996093-30-29.996093-6.898438 0-13.496094 2.398437-18.898438 6.597656-6.597656 5.402344-15.894531 4.5-20.996093-2.097656-5.398438-6.300782-4.5-15.898438 2.097656-21 10.5-8.699219 24-13.496094 37.796875-13.496094 32.996094 0 59.996094 26.996094 59.996094 59.992187zm0 0" fill="#68544f"/><path d="m405.964844 271.019531c0 8.398438-6.597656 15-15 15-8.398438 0-14.996094-6.601562-14.996094-15 0-16.496093-13.5-29.996093-30-29.996093v-29.996094c32.996094 0 59.996094 26.996094 59.996094 59.992187zm0 0" fill="#3e322e"/><path d="m330.972656 136.03125v97.492188c-.902344 93.59375-19.796875 193.882812-157.1875 276.378906-2.402344 1.496094-5.097656 2.097656-7.800781 2.097656-2.699219 0-5.398437-.601562-7.796875-2.097656-139.789062-83.996094-157.585938-189.085938-158.1875-281.480469v-92.390625c0-5.097656 2.402344-9.597656 6.597656-12.296875 4.199219-3 9.300782-3.300781 14.101563-1.5 46.496093 18.597656 96.390625 27.894531 145.285156 27.894531 48.898437 0 97.792969-9.296875 144.289063-27.894531 4.796874-2.101563 9.898437-1.5 14.101562 1.5 4.195312 2.699219 6.597656 7.199219 6.597656 12.296875zm0 0" fill="#ffd400"/><path d="m330.972656 136.03125v97.492188c-.902344 93.59375-19.796875 193.882812-157.1875 276.378906-2.402344 1.496094-5.097656 2.097656-7.800781 2.097656v-361.871094c48.898437 0 97.792969-9.296875 144.289063-27.894531 4.796874-2.101563 9.898437-1.5 14.101562 1.5 4.195312 2.699219 6.597656 7.199219 6.597656 12.296875zm0 0" fill="#ff9f00"/><path d="m135.988281 271.019531c-8.289062 0-15-6.707031-15-14.996093 0-8.277344-6.722656-15-14.996093-15-8.277344 0-15 6.722656-15 15 0 8.289062-6.707032 14.996093-15 14.996093-8.289063 0-14.996094-6.707031-14.996094-14.996093 0-24.8125 20.183594-44.996094 44.996094-44.996094s44.996093 20.183594 44.996093 44.996094c0 8.289062-6.710937 14.996093-15 14.996093zm0 0" fill="#68544f"/><path d="m255.976562 271.019531c-8.289062 0-14.996093-6.707031-14.996093-14.996093 0-8.277344-6.722657-15-15-15-8.273438 0-15 6.722656-15 15 0 8.289062-6.707031 14.996093-14.996094 14.996093-8.292969 0-15-6.707031-15-14.996093 0-24.8125 20.183594-44.996094 44.996094-44.996094s44.996093 20.183594 44.996093 44.996094c0 8.289062-6.707031 14.996093-15 14.996093zm0 0" fill="#3e322e"/><path d="m225.980469 346.015625c0 32.996094-27 59.992187-59.996094 59.992187s-59.992187-26.996093-59.992187-59.992187c0-8.402344 6.597656-15 14.996093-15 8.402344 0 15 6.597656 15 15 0 16.496094 13.5 29.996094 29.996094 29.996094 16.5 0 30-13.5 30-29.996094 0-8.402344 6.597656-15 14.996094-15 8.402343 0 15 6.597656 15 15zm0 0" fill="#68544f"/><path d="m225.980469 346.015625c0 32.996094-27 59.992187-59.996094 59.992187v-29.996093c16.5 0 30-13.5 30-29.996094 0-8.402344 6.597656-15 14.996094-15 8.402343 0 15 6.597656 15 15zm0 0" fill="#3e322e"/></svg>